<svg width="19" height="17" viewBox="0 0 19 17" fill="none" xmlns="http://www.w3.org/2000/svg">
<path d="M5.90355 6.67857C5.29489 6.67857 4.80315 7.22121 4.80315 7.89286C4.80315 8.56451 5.29489 9.10714 5.90355 9.10714C6.5122 9.10714 7.00394 8.56451 7.00394 7.89286C7.00394 7.22121 6.5122 6.67857 5.90355 6.67857ZM9.75493 6.67857C9.14627 6.67857 8.65453 7.22121 8.65453 7.89286C8.65453 8.56451 9.14627 9.10714 9.75493 9.10714C10.3636 9.10714 10.8553 8.56451 10.8553 7.89286C10.8553 7.22121 10.3636 6.67857 9.75493 6.67857ZM13.6063 6.67857C12.9977 6.67857 12.5059 7.22121 12.5059 7.89286C12.5059 8.56451 12.9977 9.10714 13.6063 9.10714C14.215 9.10714 14.7067 8.56451 14.7067 7.89286C14.7067 7.22121 14.215 6.67857 13.6063 6.67857ZM9.75493 0C4.89256 0 0.951776 3.53281 0.951776 7.89286C0.951776 9.69911 1.63608 11.3536 2.77086 12.6855C2.25849 14.1806 1.19249 15.448 1.17529 15.4632C0.948337 15.7288 0.88644 16.1158 1.01711 16.4498C1.14778 16.7837 1.44695 17 1.77707 17C3.89189 17 5.55968 16.0248 6.56035 15.2431C7.55414 15.5884 8.62702 15.7857 9.75493 15.7857C14.6173 15.7857 18.5581 12.2529 18.5581 7.89286C18.5581 3.53281 14.6173 0 9.75493 0ZM9.75493 13.9643C8.83679 13.9643 7.92896 13.8087 7.05896 13.5051L6.27837 13.2319L5.60782 13.7556C5.11608 14.1388 4.44209 14.5676 3.63055 14.856C3.88157 14.3969 4.12572 13.8808 4.31485 13.3306L4.67936 12.2643L3.97098 11.4371C3.34857 10.7047 2.60237 9.4942 2.60237 7.89286C2.60237 4.54598 5.8107 1.82143 9.75493 1.82143C13.6992 1.82143 16.9075 4.54598 16.9075 7.89286C16.9075 11.2397 13.6992 13.9643 9.75493 13.9643Z" fill="#363636"/>
</svg>
