<svg width="21" height="19" viewBox="0 0 21 19" fill="none" xmlns="http://www.w3.org/2000/svg">
<path d="M17.9794 1.15624C15.4308 -0.718755 12.2837 0.156245 10.5846 2.30208C8.88552 0.156245 5.73837 -0.729172 3.18976 1.15624C1.83823 2.15624 0.988688 3.84374 0.930765 5.62499C0.795612 9.66666 4.11653 12.9062 9.18479 17.875L9.28133 17.9687C10.015 18.6875 11.1445 18.6875 11.8782 17.9583L11.9844 17.8542C17.0527 12.8958 20.3639 9.65625 20.2384 5.61458C20.1805 3.84375 19.331 2.15624 17.9794 1.15624ZM10.6811 16.3229L10.5846 16.4271L10.4881 16.3229C5.89283 11.8333 2.86153 8.86458 2.86153 5.85416C2.86153 3.77083 4.30961 2.20833 6.24037 2.20833C7.72706 2.20833 9.17514 3.23958 9.68679 4.66666H11.4921C11.9941 3.23958 13.4421 2.20833 14.9288 2.20833C16.8596 2.20833 18.3077 3.77083 18.3077 5.85416C18.3077 8.86458 15.2764 11.8333 10.6811 16.3229Z" fill="#363636"/>
</svg>
