<svg width="23" height="20" viewBox="0 0 23 20" fill="none" xmlns="http://www.w3.org/2000/svg">
<path d="M19.4808 1.32251C16.6208 -0.627493 13.0891 0.282507 11.1824 2.51417C9.27577 0.282507 5.7441 -0.638327 2.8841 1.32251C1.36743 2.36251 0.414102 4.11751 0.349102 5.97001C0.197435 10.1733 3.9241 13.5425 9.6116 18.71L9.71993 18.8075C10.5433 19.555 11.8108 19.555 12.6341 18.7967L12.7533 18.6883C18.4408 13.5317 22.1566 10.1625 22.0158 5.95917C21.9508 4.11751 20.9974 2.36251 19.4808 1.32251ZM11.2908 17.0958L11.1824 17.2042L11.0741 17.0958C5.91743 12.4267 2.51577 9.33917 2.51577 6.20834C2.51577 4.04167 4.14077 2.41667 6.30743 2.41667C7.97577 2.41667 9.60077 3.48917 10.1749 4.97334H12.2008C12.7641 3.48917 14.3891 2.41667 16.0574 2.41667C18.2241 2.41667 19.8491 4.04167 19.8491 6.20834C19.8491 9.33917 16.4474 12.4267 11.2908 17.0958Z" fill="white"/>
</svg>
