<svg width="62" height="43" viewBox="0 0 62 43" fill="none" xmlns="http://www.w3.org/2000/svg">
<g filter="url(#filter0_bd_1428_12)">
<rect x="6" y="5" width="32" height="31" rx="15.5" fill="#F1F1F1"/>
</g>
<g filter="url(#filter1_bd_1428_12)">
<rect x="15" y="5" width="32" height="31" rx="15.5" fill="#F1F1F1"/>
</g>
<g filter="url(#filter2_bd_1428_12)">
<rect x="24" y="5" width="32" height="31" rx="15.5" fill="#F1F1F1"/>
</g>
<path d="M37.4119 24.474C37.3559 24.474 37.3186 24.4693 37.2999 24.46C37.2906 24.4413 37.2859 24.4087 37.2859 24.362V22.164H35.2279C35.1719 22.164 35.1392 22.1547 35.1299 22.136C35.1206 22.1173 35.1159 22.0893 35.1159 22.052V21.38C35.1159 21.3333 35.1206 21.3053 35.1299 21.296C35.1486 21.2773 35.1812 21.268 35.2279 21.268H37.2859V19.07C37.2859 19.0233 37.2906 18.9953 37.2999 18.986C37.3186 18.9673 37.3559 18.958 37.4119 18.958H38.1259C38.1632 18.958 38.1866 18.9673 38.1959 18.986C38.2146 18.9953 38.2239 19.028 38.2239 19.084V21.268L40.3519 21.282C40.3986 21.282 40.4266 21.2913 40.4359 21.31C40.4546 21.3193 40.4639 21.3473 40.4639 21.394V22.08C40.4639 22.1173 40.4546 22.1453 40.4359 22.164C40.4266 22.1733 40.3986 22.178 40.3519 22.178L38.2239 22.164V24.376C38.2239 24.4227 38.2146 24.4507 38.1959 24.46C38.1772 24.4693 38.1446 24.474 38.0979 24.474H37.4119ZM43.8278 26.07C43.5012 26.07 43.1745 26.028 42.8478 25.944C42.5305 25.86 42.2365 25.7387 41.9658 25.58C41.6952 25.4213 41.4665 25.2347 41.2798 25.02C41.2425 24.9733 41.2238 24.9313 41.2238 24.894C41.2332 24.8473 41.2518 24.8053 41.2798 24.768L41.7278 24.208C41.8118 24.1147 41.8958 24.11 41.9798 24.194C42.2318 24.446 42.5118 24.642 42.8198 24.782C43.1372 24.9127 43.4638 24.978 43.7998 24.978C44.1918 24.978 44.5232 24.894 44.7938 24.726C45.0645 24.5487 45.2698 24.3293 45.4098 24.068C45.5498 23.8067 45.6198 23.5407 45.6198 23.27C45.6198 23.0087 45.5452 22.7473 45.3958 22.486C45.2558 22.2153 45.0365 21.996 44.7378 21.828C44.4392 21.6507 44.0612 21.562 43.6038 21.562C43.5478 21.562 43.4918 21.562 43.4358 21.562C43.3798 21.562 43.3145 21.562 43.2398 21.562C43.2025 21.562 43.1652 21.548 43.1278 21.52C43.0998 21.492 43.0858 21.4453 43.0858 21.38V20.694C43.0858 20.5727 43.1372 20.512 43.2398 20.512C43.3052 20.512 43.3845 20.512 43.4778 20.512C43.5712 20.512 43.6785 20.512 43.7998 20.512C44.1545 20.5027 44.4532 20.4233 44.6958 20.274C44.9478 20.1153 45.1345 19.9193 45.2558 19.686C45.3865 19.4527 45.4518 19.2147 45.4518 18.972C45.4518 18.7293 45.3912 18.5053 45.2698 18.3C45.1485 18.0853 44.9665 17.9127 44.7238 17.782C44.4812 17.6513 44.1778 17.586 43.8138 17.586C43.5058 17.586 43.1792 17.656 42.8338 17.796C42.4978 17.936 42.2178 18.104 41.9938 18.3C41.8818 18.412 41.7885 18.4073 41.7138 18.286L41.3218 17.586C41.2938 17.5487 41.2892 17.5067 41.3078 17.46C41.3265 17.404 41.3452 17.3713 41.3638 17.362C41.6345 17.1473 41.9192 16.9793 42.2178 16.858C42.5165 16.7367 42.8105 16.648 43.0998 16.592C43.3892 16.536 43.6552 16.508 43.8978 16.508C44.4952 16.508 44.9945 16.62 45.3958 16.844C45.7972 17.068 46.1005 17.3573 46.3058 17.712C46.5112 18.0667 46.6138 18.4447 46.6138 18.846C46.6138 19.3127 46.4925 19.7373 46.2498 20.12C46.0165 20.4933 45.6945 20.7687 45.2838 20.946C45.1718 20.9833 45.1158 21.0113 45.1158 21.03C45.1158 21.0393 45.1812 21.0673 45.3118 21.114C45.7785 21.2727 46.1518 21.5387 46.4318 21.912C46.7118 22.276 46.8518 22.724 46.8518 23.256C46.8518 23.7227 46.7305 24.1753 46.4878 24.614C46.2545 25.0433 45.9138 25.3933 45.4658 25.664C45.0178 25.9347 44.4718 26.07 43.8278 26.07Z" fill="#7662B3"/>
<defs>
<filter id="filter0_bd_1428_12" x="0" y="0" width="44" height="43" filterUnits="userSpaceOnUse" color-interpolation-filters="sRGB">
<feFlood flood-opacity="0" result="BackgroundImageFix"/>
<feGaussianBlur in="BackgroundImageFix" stdDeviation="2"/>
<feComposite in2="SourceAlpha" operator="in" result="effect1_backgroundBlur_1428_12"/>
<feColorMatrix in="SourceAlpha" type="matrix" values="0 0 0 0 0 0 0 0 0 0 0 0 0 0 0 0 0 0 127 0" result="hardAlpha"/>
<feOffset dy="1"/>
<feGaussianBlur stdDeviation="3"/>
<feComposite in2="hardAlpha" operator="out"/>
<feColorMatrix type="matrix" values="0 0 0 0 0 0 0 0 0 0 0 0 0 0 0 0 0 0 0.1 0"/>
<feBlend mode="normal" in2="effect1_backgroundBlur_1428_12" result="effect2_dropShadow_1428_12"/>
<feBlend mode="normal" in="SourceGraphic" in2="effect2_dropShadow_1428_12" result="shape"/>
</filter>
<filter id="filter1_bd_1428_12" x="9" y="0" width="44" height="43" filterUnits="userSpaceOnUse" color-interpolation-filters="sRGB">
<feFlood flood-opacity="0" result="BackgroundImageFix"/>
<feGaussianBlur in="BackgroundImageFix" stdDeviation="2"/>
<feComposite in2="SourceAlpha" operator="in" result="effect1_backgroundBlur_1428_12"/>
<feColorMatrix in="SourceAlpha" type="matrix" values="0 0 0 0 0 0 0 0 0 0 0 0 0 0 0 0 0 0 127 0" result="hardAlpha"/>
<feOffset dy="1"/>
<feGaussianBlur stdDeviation="3"/>
<feComposite in2="hardAlpha" operator="out"/>
<feColorMatrix type="matrix" values="0 0 0 0 0 0 0 0 0 0 0 0 0 0 0 0 0 0 0.1 0"/>
<feBlend mode="normal" in2="effect1_backgroundBlur_1428_12" result="effect2_dropShadow_1428_12"/>
<feBlend mode="normal" in="SourceGraphic" in2="effect2_dropShadow_1428_12" result="shape"/>
</filter>
<filter id="filter2_bd_1428_12" x="18" y="0" width="44" height="43" filterUnits="userSpaceOnUse" color-interpolation-filters="sRGB">
<feFlood flood-opacity="0" result="BackgroundImageFix"/>
<feGaussianBlur in="BackgroundImageFix" stdDeviation="2"/>
<feComposite in2="SourceAlpha" operator="in" result="effect1_backgroundBlur_1428_12"/>
<feColorMatrix in="SourceAlpha" type="matrix" values="0 0 0 0 0 0 0 0 0 0 0 0 0 0 0 0 0 0 127 0" result="hardAlpha"/>
<feOffset dy="1"/>
<feGaussianBlur stdDeviation="3"/>
<feComposite in2="hardAlpha" operator="out"/>
<feColorMatrix type="matrix" values="0 0 0 0 0 0 0 0 0 0 0 0 0 0 0 0 0 0 0.1 0"/>
<feBlend mode="normal" in2="effect1_backgroundBlur_1428_12" result="effect2_dropShadow_1428_12"/>
<feBlend mode="normal" in="SourceGraphic" in2="effect2_dropShadow_1428_12" result="shape"/>
</filter>
</defs>
</svg>
