<svg width="17" height="19" viewBox="0 0 17 19" fill="none" xmlns="http://www.w3.org/2000/svg">
<path d="M13.6543 0H3.11841C1.42389 0 0.0454483 1.4915 0.0454483 3.325V19L6.19138 15.675L12.3373 19V10.45H16.7273V3.325C16.7273 1.4915 15.3488 0 13.6543 0ZM10.5813 15.9258L6.19138 13.5508L1.80143 15.9258V3.325C1.80143 2.53935 2.39232 1.9 3.11841 1.9H10.8904C10.6894 2.34373 10.5838 2.83087 10.5813 3.325V15.9258ZM14.9713 8.55H12.3373V3.325C12.3373 2.53935 12.9282 1.9 13.6543 1.9C14.3804 1.9 14.9713 2.53935 14.9713 3.325V8.55Z" fill="#363636"/>
</svg>
