<svg width="13" height="13" viewBox="0 0 13 13" fill="none" xmlns="http://www.w3.org/2000/svg">
<path d="M7.26335 0.808018C7.03648 0.580626 6.72877 0.452843 6.40789 0.452774H2.0689C1.74799 0.452774 1.44023 0.580512 1.21331 0.807888C0.986395 1.03526 0.858915 1.34365 0.858915 1.66521V6.013C0.858984 6.33453 0.986509 6.64287 1.21344 6.87019L6.05337 11.7199C6.28027 11.9472 6.58798 12.0749 6.90882 12.0749C7.22967 12.0749 7.53737 11.9472 7.76428 11.7199L12.1033 7.37214C12.3301 7.14478 12.4575 6.83644 12.4575 6.51495C12.4575 6.19346 12.3301 5.88512 12.1033 5.65776L7.26335 0.808018ZM3.88387 4.6963C3.56288 4.69622 3.25507 4.56837 3.02816 4.34088C2.80124 4.11339 2.67381 3.80489 2.67389 3.48326C2.67397 3.16162 2.80156 2.85318 3.02859 2.62581C3.25561 2.39843 3.56349 2.27074 3.88447 2.27082C4.20546 2.2709 4.51327 2.39875 4.74018 2.62624C4.9671 2.85373 5.09454 3.16222 5.09446 3.48386C5.09438 3.8055 4.96679 4.11393 4.73976 4.34131C4.51273 4.56868 4.20486 4.69638 3.88387 4.6963Z" fill="#7662B3"/>
</svg>
