<svg width="13" height="14" viewBox="0 0 13 14" fill="none" xmlns="http://www.w3.org/2000/svg">
<path d="M7.43491 0.965047C7.20593 0.717906 6.89536 0.579024 6.57149 0.578949H2.19213C1.86823 0.578949 1.55761 0.717782 1.32858 0.964906C1.09955 1.21203 0.970886 1.5472 0.970886 1.89669V6.62211C0.970955 6.97156 1.09967 7.30668 1.32871 7.55375L6.21367 12.8247C6.44268 13.0717 6.75325 13.2105 7.07708 13.2105C7.40091 13.2105 7.71148 13.0717 7.9405 12.8247L12.3199 8.09929C12.5488 7.85218 12.6774 7.51707 12.6774 7.16765C12.6774 6.81823 12.5488 6.48312 12.3199 6.23601L7.43491 0.965047ZM4.02398 5.19104C3.70001 5.19095 3.38934 5.052 3.16031 4.80475C2.93128 4.55751 2.80266 4.22222 2.80275 3.87264C2.80283 3.52307 2.9316 3.18785 3.16074 2.94072C3.38988 2.6936 3.70062 2.55481 4.02459 2.5549C4.34857 2.55499 4.65924 2.69394 4.88827 2.94119C5.11729 3.18844 5.24592 3.52373 5.24583 3.8733C5.24575 4.22287 5.11698 4.5581 4.88784 4.80522C4.65869 5.05234 4.34796 5.19113 4.02398 5.19104Z" fill="#05101C"/>
</svg>
